<svg width="34" height="31" viewBox="0 0 34 31" fill="none" xmlns="http://www.w3.org/2000/svg">
<path fill-rule="evenodd" clip-rule="evenodd" d="M4.45858 7.07427L8.38284 10.1727C8.6602 10.3917 9.06005 10.3572 9.2958 10.0939L15.1955 3.50561C16.1814 2.40461 17.8732 2.31132 18.9742 3.29725C19.0252 3.34286 19.0744 3.39042 19.1217 3.43981L25.508 10.1077C25.7527 10.3632 26.1539 10.384 26.4237 10.1554L30.0592 7.07427C30.7852 6.45898 31.8726 6.54874 32.4879 7.27475C32.8484 7.70019 32.9808 8.27382 32.8431 8.81424L28.4681 25.9874C28.2298 26.923 27.3872 27.5778 26.4217 27.5778H7.79412C6.82862 27.5778 5.98608 26.923 5.74772 25.9874L1.43042 9.04075C1.17055 8.02067 1.78682 6.98306 2.8069 6.72319C3.3821 6.57665 3.99272 6.70645 4.45858 7.07427Z" fill="#FFC800"/>
<path fill-rule="evenodd" clip-rule="evenodd" d="M6.88543 11.4051L8.12986 12.5429C8.56024 12.9364 9.22812 12.9065 9.62161 12.4761C9.63813 12.458 9.65403 12.4394 9.66926 12.4202L12.7661 8.51974C13.2256 7.94101 14.0673 7.84436 14.646 8.30385C14.9384 8.53604 15.1206 8.87988 15.1483 9.25225L16.2461 23.9768C16.3011 24.7137 15.7482 25.3557 15.0113 25.4106C14.9782 25.4131 14.945 25.4143 14.9118 25.4143H9.72245C9.10514 25.4143 8.56796 24.992 8.42225 24.3921L5.47077 12.2421C5.35876 11.781 5.64176 11.3163 6.10286 11.2043C6.38088 11.1368 6.67428 11.2121 6.88543 11.4051Z" fill="#FFDE00"/>
</svg>
